<?xml version="1.0" encoding="UTF-8"?>
<svg xmlns="http://www.w3.org/2000/svg" viewBox="0 0 1400 1000">
  <g id="Layer_1">
    <polygon id="Level_8_Outer" points="256.61 320.56 162.47 361.55 124.06 453.57 146.17 515.66 218.53 552.28 322.73 522.9 337.35 560.32 280.17 579.98 414.85 967.26 471.13 943.81 474.48 952.52 516.03 935.77 513.35 925.05 529.43 917.01 548.19 917.68 547.52 930.41 595.09 930.41 596.43 919.02 658.07 919.02 655.39 508.96 597.1 506.95 597.1 460.05 753.91 458.77 753.22 506.28 758.58 802.43 928.1 802.43 923.41 505.83 924.32 454.48 1122.51 451.93 1248.63 283.28 834.04 288.17 831.61 161.43 747.63 161.43 748.01 292.36 656.28 292.36 656.29 265.99 551.31 267.08 548.41 224.86 595.76 223.97 595.76 161.43 488.55 161.43 488.55 226.65 502.21 226.05 488.55 274.53 423.61 280.79 369.45 301.81 330.76 253.9 344.68 248.78 325.07 196.27 225.9 233.8 256.61 320.56" style="fill: none; stroke: #231f20; stroke-miterlimit: 10;"/>
  </g>
  <g id="Level_8">
    <polygon points="244.47 286.26 280.17 273.5 298.95 325.2 262.87 338.12 244.47 286.26" style="fill: #39b54a; stroke: #231f20; stroke-miterlimit: 10;"/>
    <polygon points="546.23 462.02 547.01 509.79 569.46 509.79 578.84 502.54 578.84 461.99 546.23 462.02" style="fill: #8dc63f; stroke: #231f20; stroke-miterlimit: 10;"/>
    <polygon points="379.66 544.8 361.35 552.28 350.44 550.54 337.15 515.75 340.29 503.19 361.74 496.02 379.66 544.8" style="fill: #39b54a; stroke: #231f20; stroke-miterlimit: 10;"/>
    <polygon points="395.14 585.46 379.66 544.8 361.35 552.28 355.99 564.35 368.45 595.56 395.14 585.46" style="fill: #8dc63f; stroke: #231f20; stroke-miterlimit: 10;"/>
    <polygon points="383.7 634.64 368.45 595.56 395.14 585.46 410 624.82 383.7 634.64" style="fill: #009444; stroke: #231f20; stroke-miterlimit: 10;"/>
    <polygon points="325.07 196.27 273.91 215.63 294.14 267.21 344.68 248.78 325.07 196.27" style="fill: #8dc63f; stroke: #231f20; stroke-miterlimit: 10;"/>
    <polygon points="597.1 506.95 597.1 529.22 655.52 529.22 655.39 508.96 597.1 506.95" style="fill: #f9ed32; stroke: #231f20; stroke-miterlimit: 10;"/>
    <rect x="597.1" y="529.22" width="58.43" height="84.65" style="fill: #8dc63f; stroke: #231f20; stroke-miterlimit: 10;"/>
    <rect x="597.1" y="613.87" width="58.43" height="53.41" style="fill: #39b54a; stroke: #231f20; stroke-miterlimit: 10;"/>
    <polygon points="597.1 667.28 597.1 738.72 656.26 738.72 656.47 667.28 597.1 667.28" style="fill: #39b54a; stroke: #231f20; stroke-miterlimit: 10;"/>
    <polygon points="597.1 738.72 597.1 796.79 657.27 796.79 656.26 738.72 597.1 738.72" style="fill: #8dc63f; stroke: #231f20; stroke-miterlimit: 10;"/>
    <polygon points="597.1 796.79 597.1 853.07 657.64 853.07 657.27 796.79 597.1 796.79" style="fill: #39b54a; stroke: #231f20; stroke-miterlimit: 10;"/>
    <rect x="549.92" y="741.46" width="28.92" height="55.33" style="fill: #009444; stroke: #231f20; stroke-miterlimit: 10;"/>
    <polygon points="578.84 846.91 578.84 796.79 549.92 796.79 549.92 857.09 567.84 857.09 578.84 846.91" style="fill: #8dc63f; stroke: #231f20; stroke-miterlimit: 10;"/>
    <polygon points="549.92 871.84 596.12 871.84 596.43 919.02 596.43 919.02 595.09 930.41 547.52 930.41 548.19 917.68 549.92 871.84" style="fill: #39b54a; stroke: #231f20; stroke-miterlimit: 10;"/>
    <polygon points="547.62 563.64 547.01 509.79 569.46 509.79 578.84 518.08 578.84 563.64 547.62 563.64" style="fill: #009444; stroke: #231f20; stroke-miterlimit: 10;"/>
    <polygon points="840.32 505.83 840.32 580.82 924.32 580.82 923.41 505.83 840.32 505.83" style="fill: #8dc63f; stroke: #231f20; stroke-miterlimit: 10;"/>
    <polygon points="840.32 580.82 839.99 624.36 853.16 634.08 924.93 634.08 924.32 580.82 840.32 580.82" style="fill: #39b54a; stroke: #231f20; stroke-miterlimit: 10;"/>
    <polygon points="862.32 634.08 862.66 682.05 926.19 682.05 924.93 634.08 862.32 634.08" style="fill: #009444; stroke: #231f20; stroke-miterlimit: 10;"/>
    <polygon points="862.66 682.05 862.66 741.46 927.13 741.46 926.19 682.05 862.66 682.05" style="fill: #8dc63f; stroke: #231f20; stroke-miterlimit: 10;"/>
    <polygon points="818.88 741.46 927.13 741.46 928.1 802.43 818.88 802.43 818.88 741.46" style="fill: #39b54a; stroke: #231f20; stroke-miterlimit: 10;"/>
    <rect x="758.15" y="754.86" width="60.73" height="47.57" style="fill: #009444; stroke: #231f20; stroke-miterlimit: 10;"/>
    <polygon points="797.29 724.93 839.85 724.93 846.5 719.12 846.5 682.04 797.29 682.5 797.29 724.93" style="fill: #39b54a; stroke: #231f20; stroke-miterlimit: 10;"/>
    <polygon points="756.35 682.5 756.35 635.7 831.09 635.7 846.5 649.44 846.5 682.04 756.35 682.5" style="fill: #009444; stroke: #231f20; stroke-miterlimit: 10;"/>
    <polygon points="783.4 635.7 783.4 614.04 808.61 614.04 808.05 567.97 754.35 568.87 755.03 635.7 783.4 635.7" style="fill: none; stroke: #231f20; stroke-miterlimit: 10;"/>
    <polygon points="808.05 567.97 808.05 544.75 753.91 544.75 754.35 568.87 808.05 567.97" style="fill: #fbb040; stroke: #231f20; stroke-miterlimit: 10;"/>
    <polygon points="753.63 528.83 794.26 528.83 794.26 506.95 753.28 506.95 753.63 528.83" style="fill: #f9ed32; stroke: #231f20; stroke-miterlimit: 10;"/>
    <polygon points="293.35 617.87 352.71 595.56 359.13 611.93 298.89 633.81 293.35 617.87" style="fill: #fbb040; stroke: #231f20; stroke-miterlimit: 10;"/>
    <polygon points="359.13 611.93 369.45 640.44 309.74 664.96 299.22 633.81 359.13 611.93" style="fill: none; stroke: #231f20; stroke-miterlimit: 10;"/>
    <polygon points="549.92 790.76 478.22 805.95 501.9 863.57 549.92 857.09 549.92 790.76" style="fill: #39b54a; stroke: #231f20; stroke-miterlimit: 10;"/>
    <polygon points="506.37 880.54 521.27 921.08 479.56 938.17 463.04 896.63 506.37 880.54" style="fill: #009444; stroke: #231f20; stroke-miterlimit: 10;"/>
    <polygon points="376.31 856.42 438.38 833.66 455.42 880.61 393.72 906.48 376.31 856.42" style="fill: #39b54a; stroke: #231f20; stroke-miterlimit: 10;"/>
    <polygon points="361.74 496.02 478.22 805.95 549.92 790.76 547.01 509.79 546.23 462.02 455.82 463.34 361.74 496.02" style="fill: none; stroke: #231f20; stroke-miterlimit: 10;"/>
    <polygon points="280.17 579.98 337.35 560.32 346.34 582.49 288.33 603.44 280.17 579.98" style="fill: #f9ed32; stroke: #231f20; stroke-miterlimit: 10;"/>
    <text transform="translate(869.74 608.97)" style="fill: #231f20; font-family: Arial-BoldMT, Arial; font-size: 6.78px; font-weight: 700;"><tspan x="0" y="0">B-08-02</tspan></text>
    <text transform="translate(786.83 661.86)" style="fill: #231f20; font-family: Arial-BoldMT, Arial; font-size: 6.78px; font-weight: 700;"><tspan x="0" y="0">B-08-09</tspan></text>
    <text transform="translate(772.19 591.73)" style="fill: #231f20; font-family: Arial-BoldMT, Arial; font-size: 6.78px; font-weight: 700;"><tspan x="0" y="0" style="letter-spacing: -.07em;">T</tspan><tspan x="3.64" y="0" style="letter-spacing: 0em;">oilet</tspan></text>
    <text transform="translate(882.31 659.87)" style="fill: #231f20; font-family: Arial-BoldMT, Arial; font-size: 6.78px; font-weight: 700;"><tspan x="0" y="0">B-08-03</tspan></text>
    <text transform="translate(882.65 715.69)" style="fill: #231f20; font-family: Arial-BoldMT, Arial; font-size: 6.78px; font-weight: 700;"><tspan x="0" y="0">B-08-04</tspan></text>
    <text transform="translate(861.24 775.87)" style="fill: #231f20; font-family: Arial-BoldMT, Arial; font-size: 6.78px; font-weight: 700;"><tspan x="0" y="0">B-08-05</tspan></text>
    <text transform="translate(776.27 780.21)" style="fill: #231f20; font-family: Arial-BoldMT, Arial; font-size: 6.78px; font-weight: 700;"><tspan x="0" y="0">B-08-06</tspan></text>
    <text transform="translate(808.19 707.01)" style="fill: #231f20; font-family: Arial-BoldMT, Arial; font-size: 6.78px; font-weight: 700;"><tspan x="0" y="0">B-08-08</tspan></text>
    <text transform="translate(550.69 540.94)" style="fill: #231f20; font-family: Arial-BoldMT, Arial; font-size: 6.78px; font-weight: 700;"><tspan x="0" y="0">D-08-13</tspan></text>
    <text transform="translate(550.69 485.89)" style="fill: #231f20; font-family: Arial-BoldMT, Arial; font-size: 6.78px; font-weight: 700;"><tspan x="0" y="0">D-08-14</tspan></text>
    <text transform="translate(613.48 571.55)" style="fill: #231f20; font-family: Arial-BoldMT, Arial; font-size: 6.78px; font-weight: 700;"><tspan x="0" y="0">D-08-01</tspan></text>
    <text transform="translate(613.48 640.44)" style="fill: #231f20; font-family: Arial-BoldMT, Arial; font-size: 6.78px; font-weight: 700;"><tspan x="0" y="0">D-08-02</tspan></text>
    <text transform="translate(613.48 706.87)" style="fill: #231f20; font-family: Arial-BoldMT, Arial; font-size: 6.78px; font-weight: 700;"><tspan x="0" y="0">D-08-03</tspan></text>
    <text transform="translate(613.48 769.94)" style="fill: #231f20; font-family: Arial-BoldMT, Arial; font-size: 6.78px; font-weight: 700;"><tspan x="0" y="0">D-08-04</tspan></text>
    <text transform="translate(613.48 826.94)" style="fill: #231f20; font-family: Arial-BoldMT, Arial; font-size: 6.78px; font-weight: 700;"><tspan x="0" y="0">D-08-05</tspan></text>
    <text transform="translate(509.03 839.71)" style="fill: #231f20; font-family: Arial-BoldMT, Arial; font-size: 6.78px; font-weight: 700;"><tspan x="0" y="0">D-08-08</tspan></text>
    <text transform="translate(298.71 234.13)" style="fill: #231f20; font-family: Arial-BoldMT, Arial; font-size: 6.78px; font-weight: 700;"><tspan x="0" y="0">S-08-05</tspan></text>
    <text transform="translate(327.75 638.44)" style="fill: #231f20; font-family: Arial-BoldMT, Arial; font-size: 6.78px; font-weight: 700;"><tspan x="0" y="0" style="letter-spacing: -.07em;">T</tspan><tspan x="3.64" y="0">oilet</tspan></text>
    <text transform="translate(403.09 865.96)" style="fill: #231f20; font-family: Arial-BoldMT, Arial; font-size: 6.78px; font-weight: 700;"><tspan x="0" y="0">E-08-04</tspan></text>
    <text transform="translate(552.14 828.55)" style="fill: #231f20; font-family: Arial-BoldMT, Arial; font-size: 6.78px; font-weight: 700;"><tspan x="0" y="0">D-08-09</tspan></text>
    <text transform="translate(552.14 769.94)" style="fill: #231f20; font-family: Arial-BoldMT, Arial; font-size: 6.78px; font-weight: 700;"><tspan x="0" y="0">D-08-10</tspan></text>
    <text transform="translate(870.07 545.85)" style="fill: #231f20; font-family: Arial-BoldMT, Arial; font-size: 6.78px; font-weight: 700;"><tspan x="0" y="0">B-08-01</tspan></text>
    <polygon points="658.07 919.02 596.43 919.02 596.12 871.84 657.76 871.84 658.07 919.02" style="fill: #009444; stroke: #231f20; stroke-miterlimit: 10;"/>
    <polygon points="808.61 614.04 754.64 614.04 754.35 568.87 808.05 567.97 808.61 614.04" style="fill: none; stroke: #231f20; stroke-miterlimit: 10;"/>
    <polygon points="756.35 682.89 797.29 682.5 797.29 724.93 787.17 724.93 757.47 741.46 756.35 682.89" style="fill: #8dc63f; stroke: #231f20; stroke-miterlimit: 10;"/>
    <polygon points="488.55 226.65 531.24 224.69 531.24 161.43 488.55 161.43 488.55 226.65" style="fill: #39b54a; stroke: #231f20; stroke-miterlimit: 10;"/>
    <path d="M329.27,428.18l-8.94-25.19c-1.81-5.1-5.18-9.5-9.63-12.59l-31.47-21.81c-7.74-5.36-17.78-6.09-26.21-1.9l-92.59,46.02c-8.31,4.13-13.77,12.41-14.29,21.68l-2.01,35.76c-.41,7.32,2.31,14.47,7.48,19.67l21.55,21.65c6.3,6.33,15.42,8.95,24.11,6.95l101.67-23.46c8.57-1.98,15.55-8.19,18.51-16.47l11.79-32.97c2-5.6,2.01-11.73.02-17.34Z" style="fill: #8dc63f; stroke: #231f20; stroke-miterlimit: 10;"/>
    <text transform="translate(765.54 707.01)" style="fill: #231f20; font-family: Arial-BoldMT, Arial; font-size: 6.78px; font-weight: 700;"><tspan x="0" y="0">B-08-07</tspan></text>
    <text transform="translate(613.48 898.23)" style="fill: #231f20; font-family: Arial-BoldMT, Arial; font-size: 6.78px; font-weight: 700;"><tspan x="0" y="0">D-08-06</tspan></text>
    <text transform="translate(559.73 898.23)" style="fill: #231f20; font-family: Arial-BoldMT, Arial; font-size: 6.78px; font-weight: 700;"><tspan x="0" y="0">D-08-07</tspan></text>
    <text transform="translate(481.99 910.65)" style="fill: #231f20; font-family: Arial-BoldMT, Arial; font-size: 6.78px; font-weight: 700;"><tspan x="0" y="0">E-08-05</tspan></text>
    <text transform="translate(497.84 196.94)" style="fill: #231f20; font-family: Arial-BoldMT, Arial; font-size: 6.78px; font-weight: 700;"><tspan x="0" y="0">S-08-04</tspan></text>
    <text transform="translate(210.19 449.52)" style="fill: #231f20; font-family: Arial-BoldMT, Arial; font-size: 6.78px; font-weight: 700;"><tspan x="0" y="0">Auditorium 1</tspan></text>
    <polygon points="570.61 617.49 548.04 617.49 547.62 563.64 578.84 563.64 578.84 609.18 570.61 617.49" style="fill: #39b54a; stroke: #231f20; stroke-miterlimit: 10;"/>
    <polygon points="578.84 681.54 578.84 741.46 549.92 741.46 548.72 674.4 571.33 674.4 578.84 681.54" style="fill: #39b54a; stroke: #231f20; stroke-miterlimit: 10;"/>
    <polygon points="463.85 865.55 447.42 818.25 478.22 805.95 501.9 863.57 479.04 871.84 463.85 865.55" style="fill: #8dc63f; stroke: #231f20; stroke-miterlimit: 10;"/>
    <text transform="translate(461.31 841.72)" style="fill: #231f20; font-family: Arial-BoldMT, Arial; font-size: 6.78px; font-weight: 700;"><tspan x="0" y="0">E-08-06</tspan></text>
    <polygon points="447.42 818.25 434.1 779.9 464.2 768.63 478.22 805.95 447.42 818.25" style="fill: #39b54a; stroke: #231f20; stroke-miterlimit: 10;"/>
    <polygon points="438.38 833.66 416.26 770.59 354.34 793.26 376.31 856.42 438.38 833.66" style="fill: #009444; stroke: #231f20; stroke-miterlimit: 10;"/>
    <polygon points="424.61 752.57 434.1 779.9 464.2 768.63 451.56 735 427.45 744.41 424.61 752.57" style="fill: #009444; stroke: #231f20; stroke-miterlimit: 10;"/>
    <polygon points="416.26 770.59 392.54 705.45 331.55 727.71 354.34 793.26 416.26 770.59" style="fill: #8dc63f; stroke: #231f20; stroke-miterlimit: 10;"/>
    <polygon points="331.55 727.71 392.54 705.45 369.45 640.44 309.74 664.96 331.55 727.71" style="fill: #39b54a; stroke: #231f20; stroke-miterlimit: 10;"/>
    <text transform="translate(384.3 814.84)" style="fill: #231f20; font-family: Arial-BoldMT, Arial; font-size: 6.78px; font-weight: 700;"><tspan x="0" y="0">E-08-03</tspan></text>
    <text transform="translate(360.87 749.36)" style="fill: #231f20; font-family: Arial-BoldMT, Arial; font-size: 6.78px; font-weight: 700;"><tspan x="0" y="0">E-08-02</tspan></text>
    <text transform="translate(339.09 688.89)" style="fill: #231f20; font-family: Arial-BoldMT, Arial; font-size: 6.78px; font-weight: 700;"><tspan x="0" y="0">E-08-01</tspan></text>
    <text transform="translate(377.17 611.93)" style="fill: #231f20; font-family: Arial-BoldMT, Arial; font-size: 6.78px; font-weight: 700;"><tspan x="0" y="0">E-08-09</tspan></text>
    <text transform="translate(362.32 573.58)" style="fill: #231f20; font-family: Arial-BoldMT, Arial; font-size: 6.78px; font-weight: 700;"><tspan x="0" y="0">E-08-10</tspan></text>
    <text transform="translate(346.54 528.22)" style="fill: #231f20; font-family: Arial-BoldMT, Arial; font-size: 6.78px; font-weight: 700;"><tspan x="0" y="0">E-08-</tspan><tspan x="16.57" y="0" style="letter-spacing: -.06em;">1</tspan><tspan x="19.97" y="0">1</tspan></text>
    <text transform="translate(444.35 795.77)" style="fill: #231f20; font-family: Arial-BoldMT, Arial; font-size: 6.78px; font-weight: 700;"><tspan x="0" y="0">E-08-07</tspan></text>
    <text transform="translate(431.47 757.45)" style="fill: #231f20; font-family: Arial-BoldMT, Arial; font-size: 6.78px; font-weight: 700;"><tspan x="0" y="0">E-08-08</tspan></text>
    <text transform="translate(550.69 590.57)" style="fill: #231f20; font-family: Arial-BoldMT, Arial; font-size: 6.78px; font-weight: 700;"><tspan x="0" y="0">D-08-12</tspan></text>
    <text transform="translate(551.96 709.77)" style="fill: #231f20; font-family: Arial-BoldMT, Arial; font-size: 6.78px; font-weight: 700;"><tspan x="0" y="0">D-08-</tspan><tspan x="16.95" y="0" style="letter-spacing: -.06em;">1</tspan><tspan x="20.34" y="0">1</tspan></text>
    <path d="M380.76,343.16l15.83,47.89c1.16,3.52,3.58,6.49,6.78,8.34l56.25,32.56c9.9,5.73,22.33-1.18,22.7-12.61l2.02-63.26c.23-7.21-4.67-13.59-11.7-15.22l-74.1-17.2c-11.5-2.67-21.49,8.28-17.78,19.48Z" style="fill: none; stroke: #231f20; stroke-miterlimit: 10;"/>
    <polygon points="753.28 506.95 923.41 505.83 924.32 454.48 753.91 458.77 753.28 506.95" style="fill: none; stroke: #231f20; stroke-miterlimit: 10;"/>
    <polygon points="566.07 437.79 566.07 292.36 656.28 292.36 655.52 437.79 566.07 437.79" style="fill: #009444; stroke: #231f20; stroke-miterlimit: 10;"/>
    <polygon points="566.07 437.79 511.55 437.79 497.12 419.91 497.12 345.98 566.07 345.98 566.07 437.79" style="fill: #39b54a; stroke: #231f20; stroke-miterlimit: 10;"/>
    <rect x="511.06" y="292.36" width="55" height="53.62" style="fill: #8dc63f; stroke: #231f20; stroke-miterlimit: 10;"/>
    <text transform="translate(261.85 307.97)" style="fill: #231f20; font-family: Arial-BoldMT, Arial; font-size: 6.78px; font-weight: 700;"><tspan x="0" y="0">S-08-06</tspan></text>
    <text transform="translate(526.51 323.27)" style="fill: #231f20; font-family: Arial-BoldMT, Arial; font-size: 6.78px; font-weight: 700;"><tspan x="0" y="0">S-08-03</tspan></text>
    <text transform="translate(527.2 391.89)" style="fill: #231f20; font-family: Arial-BoldMT, Arial; font-size: 6.78px; font-weight: 700;"><tspan x="0" y="0">S-08-02</tspan></text>
    <text transform="translate(599.12 391.89)" style="fill: #231f20; font-family: Arial-BoldMT, Arial; font-size: 6.78px; font-weight: 700;"><tspan x="0" y="0">S-08-01</tspan></text>
    <polygon points="280.17 273.5 271.71 251.75 236.78 264.54 244.47 286.26 280.17 273.5" style="fill: #fff200; stroke: #231f20; stroke-miterlimit: 10;"/>
    <polygon points="548.41 224.86 548.41 200.69 595.76 200.69 595.76 223.97 548.41 224.86" style="fill: #fff200; stroke: #231f20; stroke-miterlimit: 10;"/>
    <polyline points="593.42 437.79 597.1 451.08 655.52 451.08 655.52 459.57" style="fill: none; stroke: #231f20; stroke-miterlimit: 10;"/>
  </g>
</svg>