<?xml version="1.0" encoding="UTF-8"?>
<svg id="Layer_1" xmlns="http://www.w3.org/2000/svg" viewBox="0 0 500 500">
  <defs>
    <style>
      .cls-1 {
        fill: #8dc63f;
      }

      .cls-2 {
        fill: #009444;
      }

      .cls-3 {
        fill: #39b54a;
      }
    </style>
  </defs>
  <rect class="cls-1" x="75.37" y="36.3" width="95.27" height="50.89"/>
  <rect class="cls-3" x="75.37" y="87.18" width="95.27" height="50.89"/>
  <rect class="cls-2" x="75.37" y="138.07" width="95.27" height="50.89"/>
  <rect class="cls-1" x="183.95" y="251.68" width="95.27" height="50.89" transform="translate(-45.54 508.71) rotate(-90)"/>
  <rect class="cls-3" x="234.84" y="251.68" width="95.27" height="50.89" transform="translate(5.35 559.6) rotate(-90)"/>
  <rect class="cls-2" x="285.73" y="251.68" width="95.27" height="50.89" transform="translate(56.24 610.49) rotate(-90)"/>
  <rect class="cls-1" x="31.29" y="251.68" width="95.27" height="50.89" transform="translate(-198.2 356.05) rotate(-90)"/>
  <rect class="cls-3" x="82.18" y="251.68" width="95.27" height="50.89" transform="translate(-147.31 406.93) rotate(-90)"/>
  <rect class="cls-2" x="133.07" y="251.68" width="95.27" height="50.89" transform="translate(-96.43 457.82) rotate(-90)"/>
  <rect class="cls-1" x="212.65" y="36.3" width="95.27" height="50.89"/>
  <rect class="cls-3" x="212.65" y="87.18" width="95.27" height="50.89"/>
  <rect class="cls-2" x="212.65" y="138.07" width="95.27" height="50.89"/>
  <rect class="cls-1" x="285.73" y="115.88" width="95.27" height="50.89" transform="translate(192.04 474.69) rotate(-90)"/>
  <rect class="cls-3" x="336.62" y="115.88" width="95.27" height="50.89" transform="translate(242.92 525.57) rotate(-90)"/>
  <rect class="cls-2" x="387.5" y="115.88" width="95.27" height="50.89" transform="translate(293.81 576.46) rotate(-90)"/>
</svg>